<?xml version="1.0" encoding="UTF-8"?>
<svg id="Layer_1" xmlns="http://www.w3.org/2000/svg" version="1.1" viewBox="0 0 651.97 85.04">
  <path d="M137.62,15.45v2.33l1.99,1c2.99,1.33,4.32,2.33,4.32,6.31v34.55c0,4.32-1.33,5.98-4.32,6.98l-1.99.66v2.66h16.28v-2.66l-2.33-1.33v-21.59l3.32-1.33v-2.66l-3.32-1.99v-18.94l2.33-1.33v-2.66h-16.28ZM188.45,15.45v2.33l1.99,1c2.99,1.33,4.32,2.33,4.32,6.31v34.55c0,4.32-1.33,5.98-4.32,6.98l-1.99.66v2.66h16.28v-2.66l-2.33-1.33v-21.59l3.32-1.33v-2.66l-3.32-1.99v-18.94l2.33-1.33v-2.66h-16.28ZM262.53,43.02c7.97-1.33,14.62-7.31,14.62-13.62,0-9.3-7.31-13.95-18.27-13.95v2.66c6.98,1.33,9.3,4.98,9.3,10.63,0,5.98-2.33,9.3-5.65,11.63v2.66ZM278.81,70.26c2.66,0,5.32-1.33,6.64-2.99v-2.66c-1,.33-1.66.33-2.33.33-1.99,0-3.99-1-5.65-4.32l-5.98-11.3c-1.66-2.99-5.98-5.65-13.62-5.98v2.33c2.33,1,4.32,2.66,5.32,4.65l3.99,7.64c5.32,9.97,7.31,12.29,11.63,12.29ZM236.62,69.93h20.26v-2.66l-1.66-.66c-3.32-1.33-4.32-2.66-4.32-6.98v-14.95l3.32-.33v-2.66l-3.32-1v-21.26l1.66-1.33v-2.66h-15.95v2.33l1.99,1c2.99,1.33,4.32,2.33,4.32,6.31v34.55c0,4.32-1.33,5.98-4.32,6.98l-1.99.66v2.66ZM337.28,30.4l-.33-16.61-12.96,1.66v2.66l1.66.66c5.32,1.99,7.31,5.65,8.97,11.63h2.66ZM625.3,25.74c0-4.32,1.33-6.64,3.65-7.31l1.33-.33v-2.66h-13.29v2.66l1.33.33c2.33.66,3.65,2.99,3.65,7.31v32.22l-36.21-42.52h-12.62v.33l8.31,7.31,40.53,47.51h3.32V25.74ZM575.14,69.93h13.29v-2.66l-1.33-.33c-2.33-.66-3.65-2.99-3.65-7.31v-26.58h-3.32v26.58c0,4.32-1.33,6.64-3.65,7.31l-1.33.33v2.66ZM546.57,69.93h19.27v-2.66l-1.99-1c-3.32-1.66-3.99-2.66-3.99-6.31V25.41c0-3.65.66-4.65,3.99-6.31l1.99-1v-2.66h-19.27v2.66l1.99,1c3.65,1.66,4.32,2.66,4.32,6.31v34.55c0,3.65-.66,4.65-4.32,6.31l-1.99,1v2.66ZM516.01,70.26c13.95-1,23.59-12.62,23.59-28.24,0-13.62-9.63-24.58-23.59-27.24v2.66c6.64,1.99,14.62,11.3,14.62,24.58,0,14.62-7.97,23.92-14.62,25.91v2.33ZM507.04,70.26v-2.33c-6.98-1.99-14.62-11.3-14.62-25.91,0-13.29,7.97-22.59,14.62-24.58v-2.66c-13.95,2.66-23.92,13.62-23.92,27.24,0,15.61,9.97,27.24,23.92,28.24ZM471.82,33.72h2.66l1-14.62c-4.65-2.99-11.3-4.32-17.61-4.32v2.66c6.31,1.33,11.63,4.98,13.95,16.28ZM457.87,70.26c6.31,0,13.29-1.66,17.94-3.99l-1.33-14.95h-2.66c-2.66,11.3-6.98,14.95-13.95,16.28v2.66ZM451.89,70.26v-2.33c-6.98-1.99-14.62-11.3-14.62-25.91,0-13.29,7.97-22.59,14.62-24.58v-2.66c-13.95,2.66-23.92,13.62-23.92,27.24,0,15.61,9.97,27.24,23.92,28.24ZM375.15,70.26c13.95-1,23.59-12.62,23.59-28.24,0-13.62-9.63-24.58-23.59-27.24v2.66c6.64,1.99,14.62,11.3,14.62,24.58,0,14.62-7.97,23.92-14.62,25.91v2.33ZM366.18,70.26v-2.33c-6.98-1.99-14.62-11.3-14.62-25.91,0-13.29,7.97-22.59,14.62-24.58v-2.66c-13.95,2.66-23.92,13.62-23.92,27.24,0,15.61,9.97,27.24,23.92,28.24ZM289.11,30.4h2.66c1.66-5.98,3.65-9.63,8.97-11.63l1.66-.66v-2.66l-12.96-1.66-.33,16.61ZM301.4,69.93h23.92v-2.66l-1.99-.66c-3.99-1.33-5.98-3.32-5.98-7.31V19.77l2.66-1.66v-2.66h-13.62v2.66l2.99,1.66v39.53c0,3.99-1.99,5.65-6.31,7.31l-1.66.66v2.66ZM222.67,30.4h2.66l.66-14.95h-17.27v2.66l4.32,1.33c4.65,1.33,7.31,4.32,9.63,10.96ZM223,45.68l-.66-7.64-13.29,2.33v2.66l13.95,2.66ZM208.71,69.93h18.94l.66-16.28h-2.66c-2.66,8.64-5.98,11.96-12.62,12.96l-4.32.66v2.66ZM156.89,69.93h2.99c13.95,0,21.26-5.65,21.26-16.28,0-6.31-5.32-13.29-13.95-13.29v-.33c5.65-1.66,9.3-6.31,9.3-11.63,0-8.64-6.98-12.96-17.94-12.96v2.66c6.64,1.33,9.3,4.65,9.3,9.97s-2.33,9.3-5.65,11.63l-3.99.66v2.66h.66c7.97,0,13.29,4.32,13.29,11.3,0,7.97-4.65,11.96-15.28,12.96v2.66ZM107.06,70.26c13.95-1,23.59-12.62,23.59-28.24,0-13.62-9.63-24.58-23.59-27.24v2.66c6.64,1.99,14.62,11.3,14.62,24.58,0,14.62-7.97,23.92-14.62,25.91v2.33ZM98.09,70.26v-2.33c-6.98-1.99-14.62-11.3-14.62-25.91,0-13.29,7.97-22.59,14.62-24.58v-2.66c-13.95,2.66-23.92,13.62-23.92,27.24,0,15.61,9.97,27.24,23.92,28.24ZM47.59,43.02c7.97-1.33,14.62-7.31,14.62-13.62,0-9.3-7.31-13.95-18.27-13.95v2.66c6.98,1.33,9.3,4.98,9.3,10.63,0,5.98-2.33,9.3-5.65,11.63v2.66ZM63.87,70.26c2.66,0,5.32-1.33,6.64-2.99v-2.66c-1,.33-1.66.33-2.33.33-1.99,0-3.99-1-5.65-4.32l-5.98-11.3c-1.66-2.99-5.98-5.65-13.62-5.98v2.33c2.33,1,4.32,2.66,5.32,4.65l3.99,7.64c5.32,9.97,7.31,12.29,11.63,12.29ZM21.68,69.93h20.26v-2.66l-1.66-.66c-3.32-1.33-4.32-2.66-4.32-6.98v-14.95l3.32-.33v-2.66l-3.32-1v-21.26l1.66-1.33v-2.66h-15.95v2.33l1.99,1c2.99,1.33,4.32,2.33,4.32,6.31v34.55c0,4.32-1.33,5.98-4.32,6.98l-1.99.66v2.66Z"/>
</svg>
